<svg width="13" height="13" viewBox="0 0 13 13" fill="none" xmlns="http://www.w3.org/2000/svg">
<path fill-rule="evenodd" clip-rule="evenodd" d="M5.33333 0C2.38781 0 0 2.38781 0 5.33333C0 8.27885 2.38781 10.6667 5.33333 10.6667C6.56581 10.6667 7.70064 10.2486 8.60376 9.54657L11.5286 12.4714L11.5914 12.5269C11.8529 12.7302 12.2311 12.7117 12.4714 12.4714C12.7318 12.2111 12.7318 11.7889 12.4714 11.5286L9.54657 8.60376C10.2486 7.70064 10.6667 6.56581 10.6667 5.33333C10.6667 2.38781 8.27885 0 5.33333 0ZM5.33333 1.33333C7.54247 1.33333 9.33333 3.12419 9.33333 5.33333C9.33333 7.54247 7.54247 9.33333 5.33333 9.33333C3.12419 9.33333 1.33333 7.54247 1.33333 5.33333C1.33333 3.12419 3.12419 1.33333 5.33333 1.33333Z" fill="#CACCCF"/>
</svg>
