<svg width="18" height="18" viewBox="0 0 18 18" fill="none" xmlns="http://www.w3.org/2000/svg">
<path d="M7.28121 6.50004H2.59371C1.99061 6.50004 1.5 6.00943 1.5 5.40621V2.59371C1.5 1.99061 1.99061 1.5 2.59371 1.5H7.28121C7.88443 1.5 8.37504 1.99061 8.37504 2.59371V5.40621C8.37504 6.00943 7.88443 6.50004 7.28121 6.50004ZM2.59371 2.4375C2.50754 2.4375 2.4375 2.50754 2.4375 2.59371V5.40621C2.4375 5.4925 2.50754 5.56254 2.59371 5.56254H7.28121C7.3675 5.56254 7.43754 5.4925 7.43754 5.40621V2.59371C7.43754 2.50754 7.3675 2.4375 7.28121 2.4375H2.59371Z" fill="#25282B"/>
<path d="M7.28121 16.5H2.59371C1.99061 16.5 1.5 16.0094 1.5 15.4063V8.84383C1.5 8.24061 1.99061 7.75 2.59371 7.75H7.28121C7.88443 7.75 8.37504 8.24061 8.37504 8.84383V15.4063C8.37504 16.0094 7.88443 16.5 7.28121 16.5ZM2.59371 8.6875C2.50754 8.6875 2.4375 8.75754 2.4375 8.84383V15.4063C2.4375 15.4925 2.50754 15.5625 2.59371 15.5625H7.28121C7.3675 15.5625 7.43754 15.4925 7.43754 15.4063V8.84383C7.43754 8.75754 7.3675 8.6875 7.28121 8.6875H2.59371Z" fill="#25282B"/>
<path d="M15.4063 16.5H10.7188C10.1156 16.5 9.625 16.0094 9.625 15.4063V12.5938C9.625 11.9906 10.1156 11.5 10.7188 11.5H15.4063C16.0094 11.5 16.5 11.9906 16.5 12.5938V15.4063C16.5 16.0094 16.0094 16.5 15.4063 16.5ZM10.7188 12.4375C10.6325 12.4375 10.5625 12.5075 10.5625 12.5938V15.4063C10.5625 15.4925 10.6325 15.5625 10.7188 15.5625H15.4063C15.4925 15.5625 15.5625 15.4925 15.5625 15.4063V12.5938C15.5625 12.5075 15.4925 12.4375 15.4063 12.4375H10.7188Z" fill="#25282B"/>
<path d="M15.4063 10.25H10.7188C10.1156 10.25 9.625 9.75943 9.625 9.15621V2.59371C9.625 1.99061 10.1156 1.5 10.7188 1.5H15.4063C16.0094 1.5 16.5 1.99061 16.5 2.59371V9.15621C16.5 9.75943 16.0094 10.25 15.4063 10.25ZM10.7188 2.4375C10.6325 2.4375 10.5625 2.50754 10.5625 2.59371V9.15621C10.5625 9.2425 10.6325 9.31254 10.7188 9.31254H15.4063C15.4925 9.31254 15.5625 9.2425 15.5625 9.15621V2.59371C15.5625 2.50754 15.4925 2.4375 15.4063 2.4375H10.7188Z" fill="#25282B"/>
</svg>
