<svg width="16" height="14" viewBox="0 0 16 14" fill="none" xmlns="http://www.w3.org/2000/svg">
<path d="M13.5244 5.06201H6.55176C6.43041 5.06201 6.33203 5.16235 6.33203 5.28612C6.33203 5.4099 6.43041 5.51024 6.55176 5.51024H13.5244C13.6458 5.51024 13.7441 5.4099 13.7441 5.28612C13.7441 5.16235 13.6458 5.06201 13.5244 5.06201Z" fill="#25282B"/>
<path d="M13.5244 6.7749H6.55176C6.43041 6.7749 6.33203 6.87524 6.33203 6.99901C6.33203 7.12278 6.43041 7.22313 6.55176 7.22313H13.5244C13.6458 7.22313 13.7441 7.12278 13.7441 6.99901C13.7441 6.87524 13.6458 6.7749 13.5244 6.7749Z" fill="#25282B"/>
<path d="M13.5244 8.48828H6.55176C6.43041 8.48828 6.33203 8.58862 6.33203 8.71239C6.33203 8.83616 6.43041 8.93651 6.55176 8.93651H13.5244C13.6458 8.93651 13.7441 8.83616 13.7441 8.71239C13.7441 8.58862 13.6458 8.48828 13.5244 8.48828Z" fill="#25282B"/>
<path d="M14.2227 3.10205H5.85416C5.14948 3.10205 4.57617 3.68678 4.57617 4.40555V9.77282C4.57617 10.4916 5.14945 11.0763 5.85416 11.0763H11.7197C11.7824 11.0763 11.8407 11.1051 11.8796 11.1553L13.7738 13.6012C13.8485 13.6976 13.9574 13.7502 14.0714 13.7502C14.1138 13.7502 14.157 13.7429 14.1993 13.7279C14.3553 13.6726 14.4562 13.528 14.4562 13.3595V11.0541C15.0487 10.9412 15.5007 10.4069 15.5007 9.77282V4.40552C15.5007 3.68678 14.9274 3.10205 14.2227 3.10205ZM15.0612 9.77282C15.0612 10.2383 14.6899 10.6218 14.2336 10.6277C14.1134 10.6293 14.0167 10.7292 14.0167 10.8518V13.1917L12.2245 10.8775C12.1017 10.719 11.9178 10.6281 11.7197 10.6281H5.85416C5.3918 10.6281 5.01562 10.2444 5.01562 9.77279V4.40552C5.01562 3.93393 5.39177 3.55025 5.85416 3.55025H14.2227C14.6851 3.55025 15.0612 3.93393 15.0612 4.40552V9.77282Z" fill="#25282B"/>
<path d="M3.73713 6.80758C3.58684 6.82933 3.45225 6.90825 3.35814 7.02975L1.84874 8.97881V7.02541C1.84874 6.90275 1.75206 6.80289 1.63183 6.8013C1.25006 6.79634 0.939453 6.4755 0.939453 6.08608V1.41374C0.939453 1.01922 1.25416 0.698226 1.64097 0.698226H8.92602C9.31282 0.698226 9.62753 1.01922 9.62753 1.41374V2.27828C9.62753 2.40205 9.72591 2.5024 9.84726 2.5024C9.9686 2.5024 10.067 2.40205 10.067 2.27828V1.41374C10.067 0.772064 9.55514 0.25 8.92602 0.25H1.64097C1.01185 0.25 0.5 0.772064 0.5 1.41374V6.08608C0.5 6.64388 0.891729 7.11515 1.40932 7.22529V9.20843C1.40932 9.36764 1.50459 9.50428 1.65207 9.55652C1.69206 9.57068 1.73278 9.57755 1.77286 9.57755C1.88059 9.57755 1.98356 9.52789 2.05408 9.43684L3.70303 7.30759C3.72682 7.27684 3.76089 7.25688 3.79892 7.25135C3.91906 7.23396 4.00265 7.1205 3.98557 6.99795C3.96852 6.87541 3.85745 6.7901 3.73713 6.80758Z" fill="#25282B"/>
</svg>
