<svg width="14" height="14" viewBox="0 0 14 14" fill="none" xmlns="http://www.w3.org/2000/svg">
<path d="M13.6222 5.32225C13.5141 4.9747 13.2273 4.72203 12.8818 4.66929L9.38154 4.13625L7.81747 0.824164C7.50777 0.169289 6.48422 0.169289 6.17453 0.824164L4.61046 4.13625L1.11851 4.66929C0.773949 4.72203 0.48717 4.97558 0.379065 5.32328C0.270961 5.66994 0.36079 6.05123 0.610878 6.30655L3.14353 8.89363L2.54607 12.5437C2.48745 12.9038 2.62859 13.2687 2.91073 13.4838C3.19386 13.6979 3.56864 13.7259 3.8765 13.5558L6.99565 11.8321L10.1239 13.5558C10.2578 13.6298 10.4044 13.6663 10.55 13.6663C10.7397 13.6663 10.9293 13.6039 11.0897 13.4839C11.372 13.2678 11.513 12.9039 11.4544 12.5438L10.8579 8.89378L13.3905 6.3067C13.6406 6.05211 13.7303 5.66994 13.6222 5.32225Z" fill="#FE724C"/>
</svg>
