<svg width="18" height="18" viewBox="0 0 18 18" fill="none" xmlns="http://www.w3.org/2000/svg">
<path d="M7.86533 12.3817C7.81084 12.327 7.73525 12.2959 7.65791 12.2959C7.58086 12.2959 7.50557 12.327 7.45078 12.3817C7.39629 12.4362 7.36523 12.5115 7.36523 12.5889C7.36523 12.6659 7.39629 12.7415 7.45078 12.796C7.50557 12.8505 7.58086 12.8818 7.65791 12.8818C7.73525 12.8818 7.81055 12.8505 7.86533 12.796C7.91982 12.7415 7.95117 12.6659 7.95117 12.5889C7.95117 12.5115 7.91982 12.4362 7.86533 12.3817Z" fill="#25282B"/>
<path d="M14.3605 6.54718H13.3504C13.7143 6.18413 13.9399 5.68236 13.9399 5.12889V2.79756V1.79297C13.9399 1.63116 13.8087 1.5 13.6469 1.5H11.3676C10.5757 1.5 9.93141 2.14427 9.93141 2.93619V3.89915C9.93141 3.9012 9.93167 3.90316 9.9317 3.90519C9.93167 3.90721 9.93141 3.9092 9.93141 3.91122V5.12889C9.93141 5.68236 10.157 6.1841 10.5209 6.54718H7.36093C7.72488 6.18413 7.95044 5.68236 7.95044 5.12889V2.79756V1.79297C7.95044 1.63116 7.81928 1.5 7.65747 1.5H5.37817C4.58625 1.5 3.94198 2.14427 3.94198 2.93619V3.89915C3.94198 3.9012 3.94225 3.90316 3.94228 3.90519C3.94225 3.90721 3.94198 3.9092 3.94198 3.91122V5.12889C3.94198 5.68236 4.16754 6.1841 4.53149 6.54718H3.87026C2.5633 6.54718 1.5 7.61048 1.5 8.91747V12.5885C1.5 12.7503 1.63116 12.8815 1.79297 12.8815H6.42188C6.58368 12.8815 6.71484 12.7503 6.71484 12.5885C6.71484 12.4267 6.58368 12.2955 6.42188 12.2955H3.41051V10.4041C3.41051 10.2423 3.27935 10.1111 3.11754 10.1111C2.95573 10.1111 2.82457 10.2423 2.82457 10.4041V12.2955H2.08594V8.91747C2.08594 7.93359 2.88639 7.13311 3.87029 7.13311H4.69239L5.65324 8.57057V10.3167C5.65324 10.4785 5.7844 10.6097 5.94621 10.6097C6.10802 10.6097 6.23918 10.4785 6.23918 10.3167V8.57833L7.30928 7.13311H8.37114C9.22775 7.13311 9.92467 7.83003 9.92467 8.68664V9.88852C9.92467 10.0503 10.0558 10.1815 10.2176 10.1815C10.3794 10.1815 10.5106 10.0503 10.5106 9.88852V8.68664C10.5106 8.07524 10.2524 7.52335 9.83982 7.13311H10.6227L11.633 8.64448C11.686 8.72376 11.7742 8.77227 11.8695 8.77456C11.8719 8.77462 11.8742 8.77465 11.8766 8.77465C11.9693 8.77465 12.0567 8.73073 12.112 8.65603L13.2396 7.13314H14.3605C15.2171 7.13314 15.9141 7.83006 15.9141 8.68667V9.88855C15.9141 10.0503 16.0452 10.1815 16.207 10.1815C16.3688 10.1815 16.5 10.0503 16.5 9.88855V8.68667C16.5 7.50694 15.5402 6.54718 14.3605 6.54718ZM4.52795 2.93619C4.52795 2.46735 4.90937 2.08594 5.3782 2.08594H7.36453V2.79756C7.36453 3.24343 7.00181 3.60618 6.55591 3.60618H4.52795V2.93619ZM5.95846 7.97282L5.39716 7.13311H6.5802L5.95846 7.97282ZM5.94624 6.54721C5.16419 6.54721 4.52795 5.91097 4.52795 5.12892V4.19212H6.55591C6.8572 4.19212 7.13625 4.09576 7.36453 3.93267V5.12892C7.36453 5.91097 6.72829 6.54721 5.94624 6.54721ZM10.5173 2.93619C10.5173 2.46735 10.8988 2.08594 11.3676 2.08594H13.3539V2.79756C13.3539 3.24343 12.9912 3.60618 12.5453 3.60618H10.5173V2.93619ZM11.8888 7.97282L11.3275 7.13311H12.5105L11.8888 7.97282ZM11.9357 6.54721C11.1536 6.54721 10.5173 5.91097 10.5173 5.12892V4.19212H12.5453C12.8466 4.19212 13.1257 4.09576 13.354 3.93267V5.12892C13.354 5.91097 12.7177 6.54721 11.9357 6.54721Z" fill="#25282B"/>
<path d="M15.4279 10.6538H14.0652V10.0904C14.0652 9.70511 13.7517 9.3916 13.3664 9.3916H11.8406C11.4553 9.3916 11.1418 9.70508 11.1418 10.0904V10.6538H9.77915C9.188 10.6538 8.70703 11.1347 8.70703 11.7259V15.4268C8.70706 16.018 9.18803 16.4989 9.77918 16.4989H15.4279C16.0191 16.4989 16.5 16.018 16.5 15.4268V11.7259C16.5 11.1347 16.0191 10.6538 15.4279 10.6538ZM11.8407 9.97754H13.3665C13.4287 9.97754 13.4793 10.0282 13.4793 10.0904V10.6538H11.7278V10.0904H11.7278C11.7278 10.0282 11.7784 9.97754 11.8407 9.97754ZM15.9141 15.4268C15.9141 15.6949 15.696 15.913 15.4279 15.913H9.77918C9.51111 15.913 9.293 15.6949 9.293 15.4268V13.3093H11.8236V13.3573C11.8236 13.7873 12.1735 14.1372 12.6035 14.1372C13.0336 14.1372 13.3835 13.7873 13.3835 13.3573V13.3093H15.9141V15.4268ZM12.4095 13.3573V12.9685H12.7975V13.3573C12.7975 13.4642 12.7105 13.5512 12.6035 13.5512C12.4966 13.5512 12.4095 13.4642 12.4095 13.3573ZM15.9141 12.7234H13.3835V12.6755C13.3835 12.5137 13.2523 12.3825 13.0905 12.3825H12.1166C11.9548 12.3825 11.8236 12.5137 11.8236 12.6755V12.7234H9.293V11.7259C9.293 11.4579 9.51108 11.2397 9.77918 11.2397H11.4348H13.7723H15.4279C15.696 11.2397 15.9141 11.4578 15.9141 11.7259V12.7234Z" fill="#25282B"/>
</svg>
