<svg width="18" height="18" viewBox="0 0 18 18" fill="none" xmlns="http://www.w3.org/2000/svg">
<path d="M14.2867 12.5445L11.4831 11.2311C11.2187 11.107 11.0543 10.8579 11.0543 10.5807V9.65093C11.1216 9.57393 11.1923 9.4862 11.2654 9.3894C11.629 8.90815 11.9204 8.37245 12.1323 7.79468C12.5464 7.61675 12.8152 7.23313 12.8152 6.8V5.7C12.8152 5.43517 12.7096 5.1786 12.5217 4.97813V3.5154C12.5382 3.36415 12.6027 2.4638 11.9078 1.72102C11.305 1.0767 10.3268 0.75 9 0.75C7.67318 0.75 6.69502 1.0767 6.09222 1.72075C5.39726 2.46353 5.46183 3.36415 5.47826 3.5154V4.97813C5.29043 5.1786 5.18478 5.43517 5.18478 5.7V6.8C5.18478 7.13468 5.34708 7.4468 5.62412 7.65497C5.89295 8.6524 6.45554 9.40398 6.65217 9.64515V10.5551C6.65217 10.8213 6.49722 11.0655 6.24805 11.1931L3.62993 12.5313C2.77855 12.9666 2.25 13.801 2.25 14.7096V15.6C2.25 16.9051 6.66538 17.25 9 17.25C11.3346 17.25 15.75 16.9051 15.75 15.6V14.7632C15.75 13.8177 15.1892 12.9674 14.2867 12.5445ZM15.163 15.6C15.163 15.9732 12.9878 16.7 9 16.7C5.01222 16.7 2.83696 15.9732 2.83696 15.6V14.7096C2.83696 14.0025 3.24841 13.3527 3.91079 13.0145L6.52891 11.6763C6.96708 11.4522 7.23913 11.0224 7.23913 10.5551V9.4499L7.17075 9.37345C7.16371 9.36547 6.44439 8.5501 6.16999 7.43057L6.14328 7.32167L6.04321 7.26118C5.87328 7.15833 5.77174 6.9859 5.77174 6.8V5.7C5.77174 5.54572 5.84159 5.4019 5.96837 5.29437L6.06522 5.2127V3.5L6.06258 3.46398C6.0617 3.45655 5.96191 2.69425 6.53361 2.0832C7.0199 1.56345 7.84986 1.3 9 1.3C10.146 1.3 10.9742 1.56153 11.4611 2.0777C12.0325 2.68298 11.938 3.45738 11.9374 3.46398L11.9348 5.2127L12.0316 5.29465C12.1584 5.4019 12.2283 5.54572 12.2283 5.7V6.8C12.2283 7.04008 12.0604 7.25017 11.8109 7.32223L11.6648 7.3643L11.6178 7.50043C11.4215 8.0727 11.1418 8.60125 10.7861 9.0715C10.6989 9.18727 10.6141 9.28985 10.5405 9.36823L10.4674 9.44633V10.5807C10.4674 11.0675 10.7559 11.505 11.2205 11.7228L14.0241 13.0362C14.7266 13.3653 15.163 14.027 15.163 14.7632V15.6Z" fill="white"/>
</svg>
