<svg width="14" height="18" viewBox="0 0 14 18" fill="none" xmlns="http://www.w3.org/2000/svg">
<path d="M12.2867 12.5445L9.48312 11.2311C9.21869 11.107 9.05435 10.8579 9.05435 10.5807V9.65093C9.12155 9.57393 9.19228 9.4862 9.26536 9.3894C9.62898 8.90815 9.9204 8.37245 10.1323 7.79468C10.5464 7.61675 10.8152 7.23313 10.8152 6.8V5.7C10.8152 5.43517 10.7096 5.1786 10.5217 4.97813V3.5154C10.5382 3.36415 10.6027 2.4638 9.90778 1.72102C9.30498 1.0767 8.32681 0.75 7 0.75C5.67318 0.75 4.69502 1.0767 4.09222 1.72075C3.39726 2.46353 3.46183 3.36415 3.47826 3.5154V4.97813C3.29043 5.1786 3.18478 5.43517 3.18478 5.7V6.8C3.18478 7.13468 3.34708 7.4468 3.62412 7.65497C3.89295 8.6524 4.45554 9.40398 4.65217 9.64515V10.5551C4.65217 10.8213 4.49722 11.0655 4.24805 11.1931L1.62993 12.5313C0.778554 12.9666 0.25 13.801 0.25 14.7096V15.6C0.25 16.9051 4.66538 17.25 7 17.25C9.33462 17.25 13.75 16.9051 13.75 15.6V14.7632C13.75 13.8177 13.1892 12.9674 12.2867 12.5445ZM13.163 15.6C13.163 15.9732 10.9878 16.7 7 16.7C3.01222 16.7 0.836957 15.9732 0.836957 15.6V14.7096C0.836957 14.0025 1.24841 13.3527 1.91079 13.0145L4.52891 11.6763C4.96708 11.4522 5.23913 11.0224 5.23913 10.5551V9.4499L5.17075 9.37345C5.16371 9.36547 4.44439 8.5501 4.16999 7.43057L4.14328 7.32167L4.04321 7.26118C3.87328 7.15833 3.77174 6.9859 3.77174 6.8V5.7C3.77174 5.54572 3.84159 5.4019 3.96837 5.29437L4.06522 5.2127V3.5L4.06258 3.46398C4.0617 3.45655 3.96191 2.69425 4.53361 2.0832C5.0199 1.56345 5.84986 1.3 7 1.3C8.14603 1.3 8.97423 1.56153 9.46111 2.0777C10.0325 2.68298 9.93801 3.45738 9.93742 3.46398L9.93478 5.2127L10.0316 5.29465C10.1584 5.4019 10.2283 5.54572 10.2283 5.7V6.8C10.2283 7.04008 10.0604 7.25017 9.81093 7.32223L9.66478 7.3643L9.61783 7.50043C9.42149 8.0727 9.1418 8.60125 8.78611 9.0715C8.69895 9.18727 8.61413 9.28985 8.54047 9.36823L8.46739 9.44633V10.5807C8.46739 11.0675 8.75588 11.505 9.22046 11.7228L12.0241 13.0362C12.7266 13.3653 13.163 14.027 13.163 14.7632V15.6Z" fill="white"/>
</svg>
