<svg width="15" height="16" viewBox="0 0 15 16" fill="none" xmlns="http://www.w3.org/2000/svg">
<path d="M6.17807 11.2335L2.3479 15.3629V11.4035V11.1535H2.0979H0.25V0.25H14.75V11.1535H6.36136H6.25227L6.17807 11.2335Z" stroke="white" stroke-width="0.5"/>
<path d="M1.24609 10.0399V1.38086H13.7006V10.0399H1.24609Z" stroke="white" stroke-width="0.5"/>
<path d="M13.164 4.77165L12.3118 5.7075L12.4908 7.00429L11.4022 6.41962L10.9707 5.37074L11.4022 3.3916L11.9644 4.55443L13.164 4.77165Z" fill="white"/>
<path d="M11.4024 3.3916V6.41962L10.3133 7.00429L10.4928 5.7075L9.64062 4.77165L10.8402 4.55443L11.4024 3.3916Z" fill="white"/>
<path d="M9.20888 4.77165L8.35669 5.7075L8.53576 7.00429L7.44711 6.41962L7.01562 5.37074L7.44711 3.3916L8.00934 4.55443L9.20888 4.77165Z" fill="white"/>
<path d="M7.44731 3.3916V6.41962L6.35824 7.00429L6.53774 5.7075L5.68555 4.77165L6.88508 4.55443L7.44731 3.3916Z" fill="white"/>
<path d="M5.2538 4.77165L4.40161 5.7075L4.58068 7.00429L3.49203 6.41962L3.06055 5.37074L3.49203 3.3916L4.05426 4.55443L5.2538 4.77165Z" fill="white"/>
<path d="M3.49223 3.39258V6.42059L2.40316 7.00526L2.58266 5.70847L1.73047 4.77263L2.93 4.55541L3.49223 3.39258Z" fill="white"/>
</svg>
